<?xml version="1.0" encoding="UTF-8"?>
<svg id="Camada_1" data-name="Camada 1" xmlns="http://www.w3.org/2000/svg" viewBox="0 0 500 125">
  <defs>
    <style>
      .cls-1 {
        fill: #fd9651;
      }
    </style>
  </defs>
  <path class="cls-1" d="M29.16,87.37c8.52,0,13.94-4.31,13.94-11.23,0-18.35-38.51-17.15-38.51-39.41,0-11.63,10.53-18.85,25.17-18.85,9.23,0,17.45,2.91,23.36,6.82v6.02h-.6c-4.61-6.22-13.44-10.93-21.96-10.93-8.02,0-12.43,4.11-12.43,9.63,0,16.65,39.31,14.34,39.31,38.41,0,12.73-11.23,21.46-28.48,21.46-8.12,0-14.14-1.91-25.27-6.02v-7.32h.6c4.41,6.62,15.84,11.43,24.87,11.43Z"/>
  <path class="cls-1" d="M58.92,17.08v-.6h18.35v66.18c0,4.01.7,5.41,3.11,5.41v.6h-21.46v-.6c2.41,0,3.11-1.4,3.11-5.41V22.49c0-4.01-.7-5.42-3.11-5.42ZM79.18,60.59l19.45-18.65c2.41-2.41,3.91-5.01.8-5.01v-.6h10.33v.6c-1.7,0-4.21,1.6-9.13,6.32l-9.23,8.82,14.24,28.78c2.41,5.21,5.92,7.22,8.12,7.22v.6h-8.62c-6.42,0-12.23-.2-15.54-7.12l-10.43-20.96Z"/>
  <path class="cls-1" d="M117.58,36.93v-.6h18.35v46.33c0,4.01.7,5.41,3.11,5.41v.6h-21.46v-.6c2.41,0,3.11-1.4,3.11-5.41v-40.31c0-4.01-.7-5.41-3.11-5.41ZM128.41,16.47c5.31,0,8.92,2.51,8.92,7.52s-3.61,7.52-9.02,7.52-9.02-2.51-9.02-7.52,3.71-7.52,9.13-7.52Z"/>
  <path class="cls-1" d="M248.63,87.37c8.52,0,13.94-4.31,13.94-11.23,0-18.35-38.51-17.15-38.51-39.41,0-11.63,10.53-18.85,25.17-18.85,9.23,0,17.45,2.91,23.36,6.82v6.02h-.6c-4.61-6.22-13.44-10.93-21.96-10.93-8.02,0-12.43,4.11-12.43,9.63,0,16.65,39.31,14.34,39.31,38.41,0,12.73-11.23,21.46-28.48,21.46-8.12,0-14.14-1.91-25.27-6.02v-7.32h.6c4.41,6.62,15.84,11.43,24.87,11.43Z"/>
  <path class="cls-1" d="M330.86,56.68v25.97c0,4.21.8,5.41,3.11,5.41v.6h-17.95v-13.14c-4.61,8.52-11.73,13.74-19.15,13.74-8.02,0-13.94-6.02-13.94-13.94,0-10.53,10.53-18.65,32.69-22.26-.3-11.13-2.91-15.14-9.23-15.14-7.72,0-15.34,5.82-19.15,14.14h-.6v-8.02c5.41-5.21,14.54-8.32,24.17-8.32,13.84,0,20.05,6.42,20.05,20.96ZM315.61,55.38c-11.33,2.51-17.05,8.72-17.05,17.15,0,5.62,2.51,9.03,6.32,9.03s8.02-3.51,10.73-9.53v-16.65Z"/>
  <path class="cls-1" d="M353.62,43.05l12.73,28.68,12.74-28.58c1.6-3.41,2.01-6.22-1.3-6.22v-.6h8.82v.6c-1.91,0-3.31,2.91-5.01,6.62l-20.46,45.73h-3.01l-20.76-46.23c-1.8-3.91-2.91-6.12-5.62-6.12v-.6h23.97v.6c-3.61,0-3.71,2.81-2.11,6.12Z"/>
  <path class="cls-1" d="M408.47,43.05l12.73,28.68,12.73-28.58c1.6-3.41,2.01-6.22-1.3-6.22v-.6h8.82v.6c-1.91,0-3.31,2.91-5.01,6.62l-20.46,45.73h-3.01l-20.76-46.23c-1.8-3.91-2.91-6.12-5.62-6.12v-.6h23.97v.6c-3.61,0-3.71,2.81-2.11,6.12Z"/>
  <g>
    <path class="cls-1" d="M463.42,43.05c-1.6-3.51-1.6-6.12,2.01-6.12v-.6h-23.97v.6c2.61,0,3.71,2.11,5.62,6.12l20.36,43.21,8.05-17.51-12.06-25.7Z"/>
    <path class="cls-1" d="M468.43,88.37l-1.5,3.51c-1.5,3.61-5.82,4.71-11.13,4.71-3.71,0-8.02-.5-12.23-1.2v13.14c7.52,0,19.75-2.91,24.67-13.84l23.06-51.14c1.71-3.81,3.11-6.62,5.01-6.62v-.6h-8.82v.6c3.31,0,2.91,2.91,1.3,6.22l-12.33,27.68-8.02,17.55Z"/>
  </g>
  <g>
    <path class="cls-1" d="M163.19,53.99c2.52-6.15,6.8-10.84,10.54-10.84,3.31,0,6.02,3.71,6.02,14.24v25.57c0,3.91-.8,5.11-3.11,5.11v.6h21.96v-.6c-2.31,0-3.11-1.2-3.11-5.41v-25.87c0-14.84-6.32-21.06-13.64-21.06s-14.37,5.7-18.71,15.21l.05,3.05Z"/>
    <path class="cls-1" d="M161.8,50.96v-14.63h-18.35v.6c2.31,0,3.11,1.2,3.11,5.41v40.31c0,4.21-.8,5.41-3.11,5.41v.6h21.46v-.6c-2.31,0-3.11-1.2-3.11-5.41v-25.17s0,0,0,0v-3.99"/>
  </g>
</svg>